<?xml version="1.0" standalone="no"?>
<!DOCTYPE svg PUBLIC "-//W3C//DTD SVG 20010904//EN"
 "http://www.w3.org/TR/2001/REC-SVG-20010904/DTD/svg10.dtd">
<svg version="1.0" xmlns="http://www.w3.org/2000/svg"
 width="400.000000pt" height="387.200000pt" viewBox="0 0 400.000000 387.200000"
 preserveAspectRatio="xMidYMid meet">
<metadata>
Created by potrace 1.13, written by Peter Selinger 2001-2015
</metadata>
<g transform="translate(0.000000,387.200000) scale(0.080000,-0.080000)"
fill="#000000" stroke="none">
<path d="M1 4568 c1 -185 4 -259 10 -229 52 266 224 438 490 490 30 6 -44 9
-228 10 l-273 1 1 -272z"/>
<path d="M4499 4829 c266 -52 438 -224 490 -490 6 -30 9 44 10 229 l1 272
-272 -1 c-185 -1 -259 -4 -229 -10z"/>
<path d="M2545 3919 c-50 -28 -124 -69 -165 -91 -110 -60 -128 -75 -139 -116
-9 -36 -34 -472 -28 -479 2 -2 39 59 82 134 43 76 103 181 135 233 31 52 76
129 100 170 24 41 59 101 78 133 19 31 33 59 31 62 -3 2 -45 -19 -94 -46z"/>
<path d="M2642 3778 c-73 -136 -204 -373 -211 -383 -5 -5 -25 -41 -46 -80 -51
-94 -84 -155 -139 -250 -25 -44 -46 -85 -46 -90 0 -6 19 -18 43 -27 23 -9 77
-32 119 -51 l77 -36 107 73 c74 50 110 80 115 97 9 37 34 819 25 819 -3 0 -22
-33 -44 -72z"/>
<path d="M3205 3607 c-33 -23 -70 -49 -81 -57 -156 -108 -217 -157 -231 -183
-15 -27 -18 -71 -21 -292 -2 -143 -1 -258 2 -255 6 7 84 165 172 350 32 69 98
205 146 303 48 97 84 177 80 177 -4 0 -35 -19 -67 -43z"/>
<path d="M1924 3611 c-22 -15 -62 -41 -90 -56 -27 -16 -51 -32 -54 -35 -3 -3
-46 -32 -97 -64 -51 -32 -98 -68 -106 -79 -10 -16 -16 -79 -20 -242 -4 -121
-11 -393 -17 -605 -7 -212 -10 -414 -8 -450 l3 -65 89 160 c49 88 120 213 158
278 37 65 68 120 68 122 0 2 24 46 54 97 29 51 56 102 59 113 5 17 16 295 30
770 2 93 -6 100 -69 56z"/>
<path d="M3277 3443 c-14 -32 -34 -76 -43 -98 -18 -45 -46 -107 -110 -243 -24
-51 -44 -94 -44 -96 0 -2 -41 -88 -91 -192 -139 -289 -125 -218 -134 -691 -4
-227 -4 -413 0 -413 14 0 76 37 175 105 58 40 133 87 167 104 34 17 67 39 72
49 5 9 12 136 16 282 4 146 8 297 10 335 7 146 18 915 13 915 -2 0 -16 -26
-31 -57z"/>
<path d="M2613 2827 c-18 -12 -33 -25 -33 -29 0 -6 80 -48 93 -48 4 0 7 23 7
50 0 58 -13 63 -67 27z"/>
<path d="M2190 2787 c0 -24 6 -52 14 -62 13 -18 14 -18 48 3 65 40 65 48 9 76
-28 15 -55 26 -61 26 -5 0 -10 -19 -10 -43z"/>
<path d="M2356 2629 c-49 -37 -98 -77 -109 -87 -17 -18 -19 -42 -23 -383 -2
-200 -6 -449 -8 -553 -3 -104 -1 -185 3 -180 5 5 31 59 59 119 28 61 77 166
110 235 33 69 74 157 92 195 18 39 55 117 83 175 108 227 104 216 108 341 l4
114 -95 47 c-52 26 -104 47 -115 47 -11 -1 -60 -32 -109 -70z"/>
<path d="M1817 2303 c-190 -335 -186 -325 -130 -305 63 23 227 102 240 115 9
8 16 40 17 78 2 35 7 128 11 207 4 78 5 142 2 142 -3 0 -66 -107 -140 -237z"/>
<path d="M2599 1990 c-159 -324 -271 -561 -267 -565 2 -1 73 44 159 100 l157
103 7 174 c4 95 5 202 3 238 l-3 65 -56 -115z"/>
<path d="M1 273 l-1 -273 273 1 c184 1 258 4 228 10 -266 52 -438 224 -490
490 -6 30 -9 -44 -10 -228z"/>
<path d="M4990 516 c0 -14 -11 -60 -25 -103 -68 -216 -230 -356 -466 -402 -30
-6 44 -9 229 -10 l272 -1 0 270 c0 149 -2 270 -5 270 -3 0 -5 -11 -5 -24z"/>
</g>
</svg>
